<svg version="1.1" id="Layer_1" xmlns="http://www.w3.org/2000/svg" xmlns:xlink="http://www.w3.org/1999/xlink" x="0px" y="0px"
	 width="100%" viewBox="0 0 496 496" enable-background="new 0 0 496 496" xml:space="preserve">
<path fill="#000000" opacity="1.000000" stroke="none" 
	d="
M285.719116,318.733093 
	C244.782639,335.123383 195.426605,316.082855 178.829407,293.701569 
	C205.701431,316.815491 236.301636,327.070007 271.282043,319.867218 
	C306.654968,312.583618 331.345612,291.544067 345.446960,258.467743 
	C361.269775,221.353439 351.105774,177.655045 328.009216,153.868851 
	C326.596893,156.807068 328.093781,158.878693 329.675507,161.038269 
	C343.881195,180.433411 350.745300,202.210648 349.169952,226.163803 
	C346.118500,272.561310 311.735443,310.317719 266.481018,317.200226 
	C212.760712,325.370178 163.741684,290.242157 154.151505,236.539185 
	C146.519348,193.800797 167.391342,151.219696 207.406006,132.139709 
	C246.052094,113.712288 282.408478,119.056572 315.617828,145.996033 
	C318.578644,148.397842 318.540863,148.444397 321.170654,147.026077 
	C297.849854,120.580833 247.467545,106.619919 204.392059,129.285049 
	C174.212357,145.164780 155.739212,170.198196 150.368851,204.079666 
	C145.059235,237.577896 155.176605,266.667694 177.902542,291.691711 
	C175.251236,293.123016 174.527405,291.382874 173.647049,290.396851 
	C157.472351,272.280365 147.945221,251.123520 146.331619,226.905334 
	C144.110657,193.571518 155.837051,164.937241 180.289734,142.826462 
	C220.367081,106.587418 280.939453,104.911331 322.132660,143.206467 
	C345.413147,164.849106 357.623444,192.284454 355.735443,224.419434 
	C353.764130,257.972839 338.951416,285.225555 311.682892,305.367340 
	C303.852753,311.151031 295.398102,315.691620 285.719116,318.733093 
M311.277802,275.118011 
	C311.662476,285.603333 304.651825,291.704651 294.856232,288.978607 
	C291.597961,288.071838 289.414276,289.456299 286.916138,290.679565 
	C264.162628,301.820923 241.179367,302.431213 218.016479,292.052704 
	C215.604614,290.972046 213.620850,290.669739 210.969543,291.684692 
	C201.631638,295.259338 193.735474,289.621918 193.794449,279.562073 
	C193.810089,276.893829 193.262695,274.774719 191.406052,272.782440 
	C189.485596,270.721680 187.815735,268.397949 186.233475,266.056030 
	C172.095352,245.130081 167.849503,222.515320 174.799881,198.041763 
	C175.497681,195.584671 176.194931,193.062241 179.850922,194.340302 
	C182.931778,195.417282 182.832581,197.364456 181.945557,199.883713 
	C178.893265,208.552612 178.756851,217.591248 179.414886,226.551910 
	C180.492981,241.232498 186.029419,254.259003 195.370499,265.675751 
	C197.726410,268.555176 199.705093,269.131348 202.619217,266.160065 
	C213.117981,255.455292 223.778305,244.908112 234.445251,234.369904 
	C236.492935,232.346924 236.879547,230.770035 234.608292,228.570602 
	C230.541519,224.632385 226.695679,220.464798 222.789795,216.362335 
	C221.589035,215.101135 220.283844,214.251556 218.453079,214.267548 
	C213.461685,214.311142 209.450943,212.007919 206.056183,208.627808 
	C196.966660,199.577576 187.962799,190.441254 178.935684,181.328461 
	C177.196854,179.573120 175.771194,177.825546 178.126968,175.390091 
	C180.551804,172.883270 182.268158,174.454330 183.987061,176.181335 
	C189.040680,181.258804 194.070480,186.360092 199.093964,191.467453 
	C200.693054,193.093277 202.239365,193.834869 204.187347,191.874039 
	C206.123825,189.924759 204.844391,188.669113 203.482208,187.297607 
	C198.551254,182.332993 193.613342,177.374756 188.734421,172.359299 
	C187.057358,170.635284 184.612076,169.035568 187.314102,166.165848 
	C190.121552,163.184143 192.039032,165.270798 193.966080,167.196014 
	C198.327271,171.553085 202.547058,176.056534 207.016708,180.297760 
	C208.704605,181.899384 210.349106,185.506348 213.421326,182.385910 
	C216.179352,179.584579 213.018387,177.916870 211.469055,176.279541 
	C207.348175,171.924561 202.974991,167.808548 198.846771,163.460205 
	C197.084198,161.603668 193.646408,159.977768 196.891495,156.588287 
	C200.088928,153.248611 201.888657,156.313843 203.785172,158.192169 
	C212.898148,167.217819 221.972702,176.282745 231.003845,185.390274 
	C233.654099,188.062958 235.446213,191.230225 235.347443,195.160995 
	C235.294189,197.281235 235.953613,199.066452 237.474731,200.559586 
	C241.636139,204.644424 245.809265,208.718170 249.916214,212.857361 
	C251.985886,214.943298 253.732071,214.888306 255.842148,212.778748 
	C269.621460,199.002594 283.450226,185.275558 297.324341,171.594864 
	C300.001312,168.955215 299.625641,166.932587 296.910400,164.606201 
	C288.925629,157.764923 279.893250,152.814758 269.730682,150.345245 
	C252.550308,146.170334 235.718445,147.273941 219.613998,155.091263 
	C217.257721,156.235031 215.315842,156.806274 213.811813,153.857178 
	C212.293564,150.880173 213.889160,149.665955 216.282166,148.549973 
	C230.819778,141.770401 245.970840,139.137009 261.947144,141.349472 
	C277.402283,143.489731 290.966461,149.769470 302.818573,159.767288 
	C306.358673,162.753494 308.421753,160.688217 310.779480,158.315140 
	C313.418793,155.658691 312.920624,153.371338 310.246887,151.167740 
	C309.347748,150.426697 308.512451,149.607101 307.602386,148.880463 
	C273.206757,121.418037 223.898193,122.634369 190.857437,151.753479 
	C154.014145,184.223785 149.606766,241.211197 181.182190,278.220154 
	C208.875168,310.678589 254.780319,320.514038 293.555298,300.180878 
	C337.585419,277.091980 355.220551,219.262054 330.732056,176.305130 
	C329.854431,174.765610 329.183746,172.926849 326.398590,172.677307 
	C324.439148,177.505066 321.135254,181.850525 323.636932,187.878586 
	C335.559296,216.607239 331.849457,243.501846 313.717712,268.581299 
	C312.458740,270.322693 310.875336,271.927612 311.277802,275.118011 
M322.630981,228.045364 
	C322.661377,217.091843 323.821136,205.949066 317.151001,194.607178 
	C305.044281,212.875534 288.894470,224.081894 267.677795,229.532364 
	C281.003754,242.036255 292.409821,254.658356 305.476715,265.414917 
	C313.351471,258.679260 318.352905,247.806305 322.630981,228.045364 
M256.707672,251.787231 
	C254.973785,250.325790 253.901031,248.029007 250.709366,247.343719 
	C240.590042,259.214050 230.302429,271.281769 220.314819,282.997620 
	C221.298798,285.512543 222.748108,286.091339 224.111435,286.618774 
	C243.189194,293.999390 262.101074,293.713715 280.841919,285.347961 
	C284.894440,283.538910 285.110474,281.447205 282.032745,278.294312 
	C273.661438,269.718445 265.455139,260.981445 256.707672,251.787231 
M316.579376,163.316772 
	C313.721954,166.102631 310.837128,168.861008 308.011749,171.678955 
	C293.405334,186.246719 278.803009,200.818604 264.240448,215.430069 
	C263.164673,216.509430 261.252777,217.483719 262.453339,219.547867 
	C263.472504,221.300125 265.128632,221.962418 267.135864,221.698624 
	C268.122314,221.568985 269.143005,221.532684 270.083130,221.242996 
	C289.644226,215.215988 304.620636,203.633331 313.413147,184.858719 
	C316.081146,179.161758 318.577759,173.277649 318.725128,166.807571 
	C318.755615,165.468994 320.114655,163.259109 316.579376,163.316772 
M213.036758,279.564270 
	C226.656693,263.605103 240.312317,247.676071 253.846497,231.644516 
	C255.353516,229.859406 259.421021,227.915710 256.620453,225.396362 
	C254.157425,223.180664 252.112061,227.119064 250.443359,228.756912 
	C235.466003,243.457336 220.650528,258.322723 205.802948,273.155151 
	C204.745316,274.211700 203.705551,275.316040 202.839508,276.528198 
	C201.023285,279.070312 200.359695,281.721283 203.087143,284.091614 
	C205.964096,286.591888 208.279510,285.196594 210.343307,282.797821 
	C211.103546,281.914154 211.827362,280.999176 213.036758,279.564270 
M293.506134,279.002289 
	C295.470215,280.694855 297.113190,283.206482 300.296143,282.078827 
	C304.433990,280.612854 304.810303,276.260162 300.938354,272.456818 
	C289.199158,260.925690 277.370667,249.485397 265.569946,238.016968 
	C263.775269,236.272827 262.169067,234.173492 259.411224,236.983429 
	C256.799866,239.644135 257.289337,241.579590 259.741089,244.079315 
	C270.914368,255.471283 281.935516,267.012390 293.506134,279.002289 
M227.822540,195.842865 
	C227.634842,191.759476 225.159744,188.761246 221.927002,187.248581 
	C218.714966,185.745605 217.486450,189.812408 215.432526,191.425125 
	C213.369720,193.044800 211.694229,195.152679 209.812576,197.009689 
	C208.392517,198.411148 208.257767,199.859314 209.547943,201.377243 
	C212.447998,204.789276 215.810364,207.685944 220.610352,206.412430 
	C225.361496,205.151886 228.355133,202.063538 227.822540,195.842865 
M241.947144,215.566345 
	C239.576294,213.259521 237.202545,210.955627 234.835678,208.644730 
	C233.441101,207.283112 232.228195,207.690826 230.999481,208.932144 
	C229.758896,210.185440 228.572571,211.495346 230.196701,213.145218 
	C234.315826,217.329681 237.948074,222.037415 242.565552,225.567184 
	C247.932358,221.520279 247.932358,221.520279 241.947144,215.566345 
z"/>
<path fill="#000000" opacity="1.000000" stroke="none" 
	d="
M250.991333,364.422852 
	C255.491333,362.733643 259.578583,364.583649 264.239655,364.256531 
	C264.854156,370.697540 262.632355,376.732666 262.096222,382.905731 
	C261.737457,387.036591 260.891113,391.127594 260.207733,395.227234 
	C258.863403,403.291870 250.834229,408.805664 242.831543,407.241974 
	C240.977997,406.879852 239.606964,406.166779 239.957123,403.994110 
	C240.300110,401.865936 241.663467,401.546539 243.641373,401.824005 
	C252.575317,403.077179 253.071503,402.641418 254.065796,393.213013 
	C250.242432,394.641083 246.446106,396.168182 242.729584,393.427063 
	C240.298645,391.634155 239.116196,389.115570 238.753510,386.197266 
	C237.593124,376.860138 242.032623,368.790680 250.991333,364.422852 
M256.577423,379.106903 
	C256.805695,377.300781 257.026154,375.493622 257.264252,373.688812 
	C257.517090,371.772125 258.557953,369.549347 256.464630,368.213531 
	C254.110214,366.711060 251.978867,368.171661 250.143433,369.623657 
	C245.885330,372.992371 243.472870,383.014496 245.608261,388.071442 
	C246.655075,390.550446 248.380127,390.912262 250.864883,390.112274 
	C256.038727,388.446533 255.505600,383.843567 256.577423,379.106903 
z"/>
<path fill="#000000" opacity="1.000000" stroke="none" 
	d="
M290.731750,351.328064 
	C294.164307,351.803741 293.285980,354.183960 293.243683,356.027740 
	C293.164520,359.478882 291.663788,362.852203 292.580841,366.387817 
	C294.172485,366.901215 295.078522,365.660370 296.202301,365.117706 
	C303.394714,361.644440 308.237488,364.667725 307.721680,372.615265 
	C307.443268,376.905884 306.607910,381.178925 305.761902,385.407501 
	C305.221313,388.109589 304.753235,390.440216 308.971893,390.436005 
	C307.307495,394.131195 304.621521,395.340515 301.573090,394.499664 
	C298.193146,393.567352 298.681824,390.552490 299.195038,387.828125 
	C299.963318,383.749817 300.716553,379.668274 301.422760,375.578857 
	C301.832794,373.204254 301.868652,370.448669 299.704315,369.258667 
	C297.425751,368.005920 295.332336,369.999908 293.546082,371.484894 
	C289.271149,375.038940 290.539856,380.370911 289.380493,384.916443 
	C288.849731,386.997467 288.623047,389.168854 288.408661,391.314301 
	C288.173218,393.670013 286.850220,394.420502 284.680939,394.237732 
	C282.121094,394.022034 282.464996,392.164734 282.653717,390.536499 
	C283.704987,381.466431 284.586090,372.366821 286.016174,363.355255 
	C286.587402,359.755493 286.823700,356.557312 284.473633,353.784088 
	C285.876282,350.981140 288.434631,351.986359 290.731750,351.328064 
z"/>
<path fill="#000000" opacity="1.000000" stroke="none" 
	d="
M381.894409,382.457642 
	C378.909424,389.613892 374.226410,394.246887 366.655548,395.026611 
	C363.845428,395.316040 362.975159,396.884644 362.575531,399.155121 
	C362.316650,400.626038 362.328491,402.144318 362.075562,403.616699 
	C361.712036,405.732819 360.925903,407.493652 358.244293,407.220612 
	C355.130554,406.903595 355.699860,404.605347 355.942474,402.705658 
	C357.205170,392.819611 358.390076,382.917236 360.003998,373.086578 
	C360.447693,370.384033 360.221375,368.279388 358.567963,366.515564 
	C359.006409,364.468323 360.634460,364.315033 361.776855,364.250275 
	C366.604706,363.976715 371.524323,363.402649 376.265228,364.031921 
	C381.403748,364.714020 382.682709,369.247009 383.248199,373.750397 
	C383.608704,376.621155 382.907013,379.374390 381.894409,382.457642 
M373.029755,387.521484 
	C376.105713,383.458710 376.885834,378.829987 376.638367,373.853607 
	C376.504456,371.161316 376.088196,368.431488 373.156006,368.014313 
	C370.121552,367.582642 367.366943,369.437042 366.658569,372.386536 
	C365.499390,377.212891 364.985291,382.203827 364.361237,387.145813 
	C363.922577,390.619598 366.192139,391.144165 368.788818,390.431183 
	C370.148163,390.057953 371.285919,388.877747 373.029755,387.521484 
z"/>
<path fill="#000000" opacity="1.000000" stroke="none" 
	d="
M162.103195,386.382111 
	C163.335648,377.719299 164.511063,369.501373 165.573853,361.268890 
	C165.761734,359.813629 165.605118,358.278351 165.379211,356.815277 
	C165.153732,355.355011 162.676895,353.929077 164.776688,352.516327 
	C166.669174,351.243042 169.221512,350.633209 171.406082,351.643524 
	C173.588928,352.652985 172.441406,354.950653 172.263199,356.615540 
	C171.576263,363.032837 170.670670,369.426697 169.743210,376.632629 
	C174.187500,374.333344 177.364487,371.979797 178.718338,367.733673 
	C179.353226,365.742432 180.210114,363.962402 182.660095,363.852051 
	C183.928238,363.794952 184.939514,364.360504 185.511932,365.507019 
	C186.622665,367.731750 185.387161,369.431915 183.958527,370.830688 
	C182.065384,372.684204 180.076385,374.518555 177.859619,375.942383 
	C175.230576,377.631134 175.015335,379.358002 176.930130,381.592865 
	C179.770477,384.907990 180.146774,391.049713 186.975189,389.655396 
	C186.861481,393.410767 184.310654,393.915466 182.030502,394.590637 
	C179.557053,395.323059 177.756805,394.051880 176.549942,392.119110 
	C174.357300,388.607635 172.370209,384.967773 170.139511,381.108490 
	C168.109482,383.500763 168.673172,386.248169 168.092896,388.697296 
	C167.571259,390.898865 168.135406,394.349274 164.398651,394.113525 
	C160.359070,393.858612 162.097427,390.514801 161.839050,388.305847 
	C161.782730,387.824402 161.945786,387.317291 162.103195,386.382111 
z"/>
<path fill="#000000" opacity="1.000000" stroke="none" 
	d="
M214.279266,386.003052 
	C213.922897,388.240326 213.558395,390.031128 213.266876,391.833740 
	C212.914047,394.015411 211.409088,394.350250 209.588821,394.219421 
	C207.440216,394.065033 207.389282,392.582855 207.586609,390.984711 
	C208.155243,386.379028 208.798462,381.781708 209.296387,377.168579 
	C209.544800,374.867310 209.746429,372.524353 209.586838,370.226837 
	C209.449966,368.256470 206.460602,366.133057 210.398071,364.621643 
	C214.006973,363.236389 215.301437,363.547760 217.566330,367.143341 
	C221.474548,365.211639 225.472260,361.556061 229.911591,364.841858 
	C234.414108,368.174438 232.225586,373.407104 232.017715,377.891602 
	C231.903839,380.348328 231.175812,382.787079 230.619949,385.209930 
	C230.027267,387.793243 230.001984,390.093658 233.432617,391.105225 
	C231.322281,394.040436 228.981705,395.595062 225.994400,394.344604 
	C222.753418,392.987946 223.746597,389.987488 224.174759,387.373627 
	C224.898712,382.953949 225.615417,378.533081 226.325775,374.111176 
	C226.599060,372.410095 226.650314,370.660248 225.036087,369.608856 
	C223.438873,368.568542 221.808289,369.260101 220.361984,370.163055 
	C217.575775,371.902496 215.511887,374.101746 215.292404,377.667419 
	C215.129791,380.309204 214.644836,382.931091 214.279266,386.003052 
z"/>
<path fill="#000000" opacity="1.000000" stroke="none" 
	d="
M74.014771,362.148926 
	C79.793274,354.820587 87.033211,352.849182 95.583061,354.720093 
	C97.497826,355.139099 99.311035,355.703613 99.161118,358.055847 
	C98.995941,360.647644 99.206596,363.639130 96.916901,365.359802 
	C95.341934,366.543304 94.313019,365.117950 93.814270,363.431030 
	C92.257088,358.164337 88.583488,356.730408 83.696976,359.421692 
	C81.755768,360.490845 80.215584,361.999329 79.186943,363.956604 
	C75.597603,370.786255 75.211334,377.939178 77.456757,385.206940 
	C78.377518,388.187195 80.240021,390.504211 83.788414,390.701447 
	C87.457535,390.905365 90.379379,389.922150 91.584358,386.035736 
	C92.069473,384.471100 92.914574,383.162598 94.760910,383.661194 
	C96.789413,384.208984 96.153145,386.018311 96.100304,387.433136 
	C95.957909,391.245392 94.069534,393.253754 90.219292,394.196411 
	C71.851913,398.693237 67.753204,383.731598 70.230515,370.625610 
	C70.785812,367.687897 72.023987,364.920593 74.014771,362.148926 
z"/>
<path fill="#000000" opacity="1.000000" stroke="none" 
	d="
M144.345047,363.770233 
	C152.487411,363.852509 155.864288,366.476440 156.791687,374.052246 
	C157.700775,381.478577 155.244415,387.892822 149.079559,392.419464 
	C145.372879,395.141235 141.140076,395.872833 136.836075,393.771027 
	C132.363083,391.586670 131.249359,387.327179 130.950058,382.914917 
	C130.358109,374.188171 135.506836,366.788513 144.345047,363.770233 
M148.844467,385.135986 
	C149.943573,381.151855 151.368973,377.238190 150.148224,372.962006 
	C149.418579,370.406219 148.474030,368.022461 145.520889,367.824371 
	C142.748276,367.638397 140.867569,369.443726 139.728943,371.838013 
	C138.063828,375.339417 137.191147,379.117737 137.461319,382.950958 
	C137.676880,386.008911 137.864273,389.689545 141.766785,390.534851 
	C145.340561,391.308990 147.139450,388.660065 148.844467,385.135986 
z"/>
<path fill="#000000" opacity="1.000000" stroke="none" 
	d="
M101.836739,386.380005 
	C101.006737,379.257843 101.872841,373.038055 106.862175,367.963043 
	C110.695503,364.063873 115.234299,362.567627 120.452644,364.369629 
	C125.645477,366.162842 127.004143,370.699280 127.204315,375.518463 
	C127.456680,381.594421 125.382858,386.934692 120.848427,391.126434 
	C113.808533,397.634125 105.456131,395.707001 101.836739,386.380005 
M118.625435,369.160767 
	C114.753441,365.991791 112.138794,368.187012 110.216377,371.458832 
	C107.778542,375.607880 107.728119,380.285553 108.153351,384.954468 
	C108.388092,387.531799 108.928795,390.031036 111.986473,390.573517 
	C115.039703,391.115265 117.207855,389.462189 118.330574,386.864349 
	C120.736275,381.297791 122.169525,375.581268 118.625435,369.160767 
z"/>
<path fill="#000000" opacity="1.000000" stroke="none" 
	d="
M406.682220,377.644501 
	C403.731293,379.987793 400.650879,381.191620 397.423553,382.064362 
	C395.601288,382.557129 393.009796,382.264038 393.813477,385.441193 
	C394.537170,388.302063 395.609589,390.765564 399.345184,390.709442 
	C402.420227,390.663269 404.626129,388.061615 407.476593,387.901733 
	C408.964203,389.901306 407.912628,391.032562 406.672699,391.956238 
	C399.715851,397.138306 389.292023,396.014374 387.234619,385.729095 
	C385.670563,377.910065 390.823242,367.367554 398.012512,364.592346 
	C401.906708,363.089111 406.094421,362.617645 408.947906,366.383026 
	C411.824677,370.179138 410.456848,373.892334 407.355408,377.082977 
	C407.240082,377.201599 407.104980,377.301025 406.682220,377.644501 
M402.833740,374.127533 
	C403.971771,372.312439 404.482056,370.380035 402.801483,368.718872 
	C401.774750,367.703979 400.245575,367.983856 399.077026,368.682312 
	C395.669403,370.719025 394.407593,373.838654 394.508087,377.797333 
	C397.863647,377.984558 400.182556,376.518616 402.833740,374.127533 
z"/>
<path fill="#000000" opacity="1.000000" stroke="none" 
	d="
M320.899078,366.708923 
	C323.825470,364.565399 326.682465,363.431244 330.011078,363.696136 
	C332.849396,363.921997 335.102417,364.953461 336.393799,367.677917 
	C337.688049,370.408600 337.093567,372.891602 335.430420,375.158813 
	C332.743164,378.821960 328.817566,380.613098 324.603363,381.794159 
	C322.163605,382.477905 319.397766,382.687012 320.541626,386.406311 
	C321.584534,389.797516 323.813995,391.185303 327.376068,390.501831 
	C329.788025,390.039062 331.498932,387.714081 334.006531,387.899506 
	C334.920929,388.647125 335.164154,389.444214 334.645966,390.226196 
	C332.404327,393.609131 326.010712,395.682312 321.697815,394.519623 
	C316.741364,393.183441 314.215118,389.777679 313.751526,384.854340 
	C313.087372,377.801453 315.417847,371.803925 320.899078,366.708923 
M330.187683,372.668823 
	C331.058350,370.122131 330.434021,368.332794 327.520325,368.156311 
	C324.272339,367.959595 321.611786,372.060089 321.087646,377.994843 
	C324.820038,377.845520 327.735931,376.364838 330.187683,372.668823 
z"/>
<path fill="#000000" opacity="1.000000" stroke="none" 
	d="
M346.630676,357.520935 
	C346.303589,355.516724 343.459412,354.075653 345.803040,352.408569 
	C347.510132,351.194214 349.891205,350.661285 351.987122,351.336700 
	C354.103760,352.018829 353.449982,354.164307 353.248169,355.689514 
	C351.789825,366.712158 350.211426,377.718903 348.729279,388.314392 
	C349.312134,390.323608 351.630554,388.900146 352.010925,391.049225 
	C350.566803,393.740082 348.116669,395.479095 344.921173,394.518768 
	C341.781494,393.575256 342.500031,390.392700 342.776245,388.048096 
	C343.960632,377.993256 345.365662,367.964386 346.630676,357.520935 
z"/>
<path fill="#000000" opacity="1.000000" stroke="none" 
	d="
M418.352051,369.591370 
	C417.422241,367.845245 415.756683,366.279785 417.993866,365.025452 
	C420.872589,363.411469 423.942627,362.661682 426.159576,366.010223 
	C428.157410,365.225037 429.811432,364.389374 431.564545,363.943756 
	C433.006012,363.577393 434.759186,363.495880 435.055847,365.602386 
	C435.277496,367.176392 434.811493,368.930878 433.030396,369.106537 
	C424.370239,369.960846 423.839630,376.380493 423.267365,382.891876 
	C423.034668,385.539398 422.510590,388.162170 422.300720,390.810608 
	C422.103607,393.297394 420.937408,394.457123 418.445831,394.212494 
	C415.398590,393.913330 415.880890,391.765106 416.122650,389.744080 
	C416.911438,383.150665 417.696930,376.556885 418.352051,369.591370 
z"/>
<path fill="#000000" opacity="1.000000" stroke="none" 
	d="
M198.426071,381.287537 
	C198.984344,384.846985 195.064392,388.986542 200.903732,390.859070 
	C198.793808,393.834473 196.433319,395.643372 193.192612,394.334747 
	C190.185806,393.120514 190.989792,390.359192 191.415665,387.834351 
	C192.105545,383.744476 192.465317,379.597382 193.204880,375.518005 
	C193.817215,372.140381 194.525345,368.882477 190.700180,366.833923 
	C192.487381,363.858917 195.012054,363.870636 197.450470,363.730194 
	C199.803589,363.594604 200.844009,364.701416 200.493713,367.067261 
	C199.813004,371.664703 199.142105,376.263580 198.426071,381.287537 
z"/>
<path fill="#000000" opacity="1.000000" stroke="none" 
	d="
M201.691193,351.976562 
	C203.230347,354.850922 202.246948,356.682159 199.872528,357.870880 
	C198.620956,358.497498 197.302887,358.313568 196.279602,357.229889 
	C194.961243,355.833710 194.947586,354.247833 196.006989,352.767242 
	C197.430847,350.777405 199.237335,350.068909 201.691193,351.976562 
z"/>
</svg>